#!OML:ASF F:\VICON\USERDATA\INSTALL\rory3\rory3.ASF
:FULLY-SPECIFIED
:DEGREES
3164
root -1.15238 17.7631 15.6017 128.661 -91.9628 590.11
lowerback 10.437 2.21393 -0.273789
upperback 0.414193 2.8985 0.20716
thorax -5.44345 1.4258 -0.0621739
lowerneck -19.2441 -6.15131 -12.6488
upperneck 31.6088 -8.6944 9.48038
head 15.32 -4.19366 4.44657
rclavicle 1.16289e-014 2.78299e-015
rhumerus -36.3599 -12.1918 -80.5423
rradius 32.56
rwrist 4.06346
rhand -18.623 9.30246
rfingers 7.12502
rthumb 7.66901 -20.5385
lclavicle 1.16289e-014 2.78299e-015
lhumerus -35.8869 5.59336 82.3036
lradius 31.7497
lwrist -6.88379
lhand -17.4298 25.3471
lfingers 7.12502
lthumb 8.82057 55.1427
rfemur 7.60158 0.245694 24.8611
rtibia 37.6302
rfoot -4.54836 4.14305
rtoes 4.58325
lfemur -15.9036 -3.32679 -19.5478
ltibia 16.9888
lfoot 0.750076 -9.79458
ltoes -7.7807
3165
root -1.29754 17.7847 15.6405 116.419 -91.9268 602.122
lowerback 10.4801 2.18904 -0.351906
upperback 0.47305 2.84831 0.100528
thorax -5.40383 1.40116 -0.122219
lowerneck -19.2653 -6.10022 -12.5569
upperneck 31.7538 -8.66373 9.4468
head 15.3801 -4.17981 4.42688
rclavicle -2.50966e-014 -3.97569e-016
rhumerus -36.5395 -12.5892 -80.3997
rradius 32.2697
rwrist 4.40417
rhand -18.5069 9.24339
rfingers 7.12502
rthumb 7.7811 -20.5934
lclavicle -2.50966e-014 -3.97569e-016
lhumerus -36.0683 5.42536 82.2552
lradius 31.7913
lwrist -6.5078
lhand -16.2845 25.0534
lfingers 7.12502
lthumb 9.92573 54.7994
rfemur 6.51014 -0.17859 24.2051
rtibia 40.2849
rfoot -1.78816 4.52654
rtoes 4.91992
lfemur -14.9912 -3.28147 -19.8989
ltibia 16.8901
lfoot 0.484949 -9.48714
ltoes -7.40008
3166
root -1.43916 17.8085 15.669 102.874 -92.1106 615.422
lowerback 10.576 2.23356 -0.688279
upperback 0.53507 2.85673 -0.0383181
thorax -5.40192 1.41087 -0.0820254
lowerneck -19.1742 -6.08938 -12.4422
upperneck 31.7723 -8.71224 9.44352
head 15.3677 -4.19281 4.39684
rclavicle 1.08586e-014 -1.19271e-015
rhumerus -36.7208 -12.9326 -80.3548
rradius 32.0891
rwrist 4.41646
rhand -18.5154 8.94605
rfingers 7.12502
rthumb 7.77287 -20.8911
lclavicle 1.08586e-014 -1.19271e-015
lhumerus -36.213 4.96046 82.3402
lradius 31.8323
lwrist -5.80441
lhand -14.5438 24.5136
lfingers 7.12502
lthumb 11.6047 54.1723
rfemur 5.35535 -0.49695 23.4632
rtibia 42.9118
rfoot 1.32404 4.79355
rtoes 6.23225
lfemur -14.05 -2.89417 -20.393
ltibia 16.7075
lfoot 0.28812 -9.40011
ltoes -6.15654
3167
root -1.58305 17.8197 15.7121 92.7342 -92.3145 625.186
lowerback 10.7511 2.22014 -0.759824
upperback 0.649645 2.81808 -0.161588
thorax -5.37645 1.3902 -0.168663
lowerneck -19.111 -6.08268 -12.4549
upperneck 31.7947 -8.73846 9.49956
head 15.3719 -4.20341 4.41934
rclavicle -6.65929e-015 1.78906e-015
rhumerus -36.8497 -12.9357 -80.3872
rradius 31.964
rwrist 4.25119
rhand -18.5031 8.69767
rfingers 7.12502
rthumb 7.78481 -21.139
lclavicle -6.65929e-015 1.78906e-015
lhumerus -36.3387 4.75335 82.3624
lradius 31.8445
lwrist -5.44694
lhand -14.2396 24.6328
lfingers 7.12502
lthumb 11.8981 54.2747
rfemur 4.26041 -0.960738 22.6595
rtibia 45.5006
rfoot 4.30494 5.39695
rtoes 6.77388
lfemur -12.8913 -3.2789 -20.8746
ltibia 16.3475
lfoot 0.151085 -8.74058
ltoes -5.70474
3168
root -1.71636 17.8299 15.7461 81.1221 -92.6128 636.618
lowerback 10.8725 2.26539 -0.973861
upperback 0.660956 2.84345 -0.261797
thorax -5.43804 1.40573 -0.161842
lowerneck -19.022 -6.09528 -12.556
upperneck 31.8343 -8.77565 9.57286
head 15.3867 -4.22891 4.46349
rclavicle 2.6339e-014 -2.98177e-015
rhumerus -37.0402 -12.9977 -80.311
rradius 31.8631
rwrist 4.24331
rhand -18.2175 8.78629
rfingers 7.12502
rthumb 8.06041 -21.04
lclavicle 2.6339e-014 -2.98177e-015
lhumerus -36.5212 4.44646 82.3745
lradius 31.9564
lwrist -5.15127
lhand -14.7142 24.87
lfingers 7.12502
lthumb 11.4404 54.5378
rfemur 2.91227 -1.26316 21.9929
rtibia 48.0574
rfoot 6.73856 5.95057
rtoes 7.31565
lfemur -11.8212 -2.76081 -21.3611
ltibia 15.7086
lfoot -0.0200287 -8.89418
ltoes -6.43544
3169
root -1.84859 17.8478 15.7769 72.8762 -93.1761 644.731
lowerback 10.9978 2.33863 -1.3685
upperback 0.658732 2.8781 -0.43239
thorax -5.52161 1.42928 -0.129496
lowerneck -19.0151 -6.08249 -12.5456
upperneck 31.8872 -8.76198 9.54107
head 15.4051 -4.22947 4.45221
rclavicle -7.15625e-015 -5.36719e-015
rhumerus -37.1838 -13.0277 -80.2959
rradius 31.7383
rwrist 4.03444
rhand -18.189 8.95855
rfingers 7.12502
rthumb 8.08788 -20.8667
lclavicle -7.15625e-015 -5.36719e-015
lhumerus -36.6776 4.00139 82.4449
lradius 32.093
lwrist -4.87447
lhand -14.8023 25.1305
lfingers 7.12502
lthumb 11.3555 54.8031
rfemur 1.49292 -1.46104 21.1763
rtibia 50.5728
rfoot 8.77098 6.22762
rtoes 10.3461
lfemur -10.6833 -2.45825 -22.0091
ltibia 14.8785
lfoot -0.0567019 -8.66663
ltoes -6.72142
3170
root -1.98004 17.8672 15.8028 67.8618 -93.8877 649.638
lowerback 11.0549 2.37291 -1.96284
upperback 0.669983 2.83635 -0.592433
thorax -5.56253 1.42016 0.0408162
lowerneck -19.0292 -6.02692 -12.5775
upperneck 31.9327 -8.67285 9.53405
head 15.4172 -4.19948 4.47407
rclavicle 4.09621e-014 -1.15295e-014
rhumerus -37.2765 -12.6649 -80.4422
rradius 31.6866
rwrist 3.85739
rhand -18.4847 8.92429
rfingers 7.12502
rthumb 7.80257 -20.9117
lclavicle 4.09621e-014 -1.15295e-014
lhumerus -36.8011 3.76974 82.4872
lradius 32.2256
lwrist -4.75768
lhand -14.6071 25.2075
lfingers 7.12502
lthumb 11.5436 54.8696
rfemur 0.0408421 -1.52224 20.3103
rtibia 53.0374
rfoot 10.4712 6.0125
rtoes 15.7751
lfemur -9.52429 -2.2297 -22.7423
ltibia 13.934
lfoot -0.050751 -8.34701
ltoes -6.73564
